<?xml version="1.0" encoding="UTF-8" standalone="no"?>
<!-- Created with Inkscape (http://www.inkscape.org/) -->
<svg xmlns:dc="http://purl.org/dc/elements/1.1/" xmlns:cc="http://creativecommons.org/ns#" xmlns:rdf="http://www.w3.org/1999/02/22-rdf-syntax-ns#" xmlns:svg="http://www.w3.org/2000/svg" xmlns="http://www.w3.org/2000/svg" xmlns:xlink="http://www.w3.org/1999/xlink" xmlns:sodipodi="http://inkscape.sourceforge.net/DTD/sodipodi-0.dtd" xmlns:inkscape="http://www.inkscape.org/namespaces/inkscape" version="1.0" width="408.88498" height="308.76144" id="svg1901" sodipodi:version="0.32" inkscape:version="0.32" sodipodi:docname="Globe_valve_diagram2.svg" sodipodi:docbase="E:\Hanro\Grafik" x="0.00000000" y="0.00000000">
  <metadata id="metadata11519">
    <rdf:RDF>
      <cc:Work rdf:about="">
        <dc:format>image/svg+xml</dc:format>
        <dc:type rdf:resource="http://purl.org/dc/dcmitype/StillImage"/>
      </cc:Work>
    </rdf:RDF>
  </metadata>
  <sodipodi:namedview inkscape:window-height="721" inkscape:window-width="1024" inkscape:pageshadow="2" inkscape:pageopacity="0.0" guidetolerance="10.0" gridtolerance="10.0" objecttolerance="10.0" borderopacity="1.0" bordercolor="#666666" pagecolor="#ffffff" id="base" showgrid="false" inkscape:zoom="0.66889227" inkscape:cx="104.32772" inkscape:cy="458.11175" inkscape:window-x="-4" inkscape:window-y="-4" inkscape:current-layer="svg1901"/>
  <defs id="defs1903">
    <marker inkscape:stockid="Arrow1Lstart" orient="auto" refY="0.0" refX="0.0" id="Arrow1Lstart" style="overflow:visible">
      <path sodipodi:nodetypes="ccccc" id="path5453" d="M 0.0,0.0 L 5.0,-5.0 L -12.5,0.0 L 5.0,5.0 L 0.0,0.0 z " style="fill-rule:evenodd;stroke:#000000;stroke-width:1.0pt;marker-start:none" transform="scale(0.8)"/>
    </marker>
    <inkscape:perspective sodipodi:type="inkscape:persp3d" inkscape:vp_x="0 : 154.38072 : 1" inkscape:vp_y="0 : 1000 : 0" inkscape:vp_z="408.88498 : 154.38072 : 1" inkscape:persp3d-origin="204.44249 : 102.92048 : 1" id="perspective11521"/>
    <marker refX="0.00000000" refY="0.00000000" orient="auto" id="DotS" style="overflow:visible">
      <path d="M -2.5000000,-1.0000000 C -2.5000000,1.7600000 -4.7400000,4.0000000 -7.5000000,4.0000000 C -10.260000,4.0000000 -12.500000,1.7600000 -12.500000,-1.0000000 C -12.500000,-3.7600000 -10.260000,-6.0000000 -7.5000000,-6.0000000 C -4.7400000,-6.0000000 -2.5000000,-3.7600000 -2.5000000,-1.0000000 z " transform="matrix(0.200000,0.000000,0.000000,0.200000,1.480000,0.200000)" id="path9101" style="fill-rule:evenodd;stroke:#000000;stroke-width:1.0000000pt;marker-start:none;marker-end:none"/>
    </marker>
    <linearGradient id="linearGradient9020">
      <stop id="stop9022" style="stop-color:#803f8a;stop-opacity:1" offset="0"/>
      <stop id="stop9024" style="stop-color:#56255c;stop-opacity:1" offset="0.5"/>
      <stop id="stop9026" style="stop-color:#803f8a;stop-opacity:1" offset="1"/>
    </linearGradient>
    <linearGradient id="linearGradient8933">
      <stop id="stop8935" style="stop-color:#fce94f;stop-opacity:1" offset="0"/>
      <stop id="stop8941" style="stop-color:#c6b420;stop-opacity:1" offset="0.5"/>
      <stop id="stop8937" style="stop-color:#fce94f;stop-opacity:1" offset="1"/>
    </linearGradient>
    <linearGradient id="linearGradient8846">
      <stop id="stop8848" style="stop-color:#803f8a;stop-opacity:1" offset="0"/>
      <stop id="stop9014" style="stop-color:#995ea1;stop-opacity:1" offset="0.5"/>
      <stop id="stop8850" style="stop-color:#803f8a;stop-opacity:1" offset="1"/>
    </linearGradient>
    <linearGradient id="linearGradient8734">
      <stop id="stop8736" style="stop-color:#73d216;stop-opacity:1" offset="0"/>
      <stop id="stop8738" style="stop-color:#445e2a;stop-opacity:1" offset="1"/>
    </linearGradient>
    <linearGradient x1="260.00000" y1="527.36218" x2="260.00000" y2="632.36218" id="linearGradient8939" xlink:href="#linearGradient8933" gradientUnits="userSpaceOnUse"/>
    <linearGradient x1="180.00000" y1="377.36218" x2="320.00000" y2="377.36218" id="linearGradient9012" xlink:href="#linearGradient8846" gradientUnits="userSpaceOnUse"/>
    <linearGradient x1="180.00000" y1="377.36218" x2="320.00000" y2="377.36218" id="linearGradient9018" xlink:href="#linearGradient9020" gradientUnits="userSpaceOnUse" gradientTransform="matrix(0.998799,0.000000,0.000000,-0.840360,0.273463,694.5467)"/>
    <linearGradient inkscape:collect="always" xlink:href="#linearGradient8846" id="linearGradient3074" gradientUnits="userSpaceOnUse" x1="180.00000" y1="377.36218" x2="320.00000" y2="377.36218" gradientTransform="translate(-52.19136,-352.0550)"/>
    <linearGradient inkscape:collect="always" xlink:href="#linearGradient9020" id="linearGradient3077" gradientUnits="userSpaceOnUse" gradientTransform="matrix(0.998799,0.000000,0.000000,-0.840360,-51.91790,342.4917)" x1="180.00000" y1="377.36218" x2="320.00000" y2="377.36218"/>
    <linearGradient inkscape:collect="always" xlink:href="#linearGradient8933" id="linearGradient3084" gradientUnits="userSpaceOnUse" x1="260.00000" y1="527.36218" x2="260.00000" y2="632.36218" gradientTransform="translate(-52.19136,-352.0550)"/>
  </defs>
  <g inkscape:groupmode="layer" id="layer4" inkscape:label="body" style="display:inline">
    <path sodipodi:nodetypes="cccccccccccccccccccccccccccccccccccccccccccccccc" style="opacity:1.0000000;fill:url(#linearGradient3084);fill-opacity:1.0000000;fill-rule:evenodd;stroke:none;stroke-linejoin:round;marker:none;marker-start:none;marker-mid:none;marker-end:none;stroke-opacity:0.011450351;visibility:visible;display:inline;overflow:visible" id="rect8918" d="M 165.65239,150.33843 L 165.33989,150.55718 L 167.80864,152.24468 L 165.33989,153.90093 L 167.80864,155.58843 L 165.33989,157.24468 L 167.80864,158.90093 L 165.33989,160.58843 L 167.80864,162.24468 L 165.33989,163.93218 L 167.80864,165.58843 L 165.33989,167.24468 L 167.80864,168.93218 L 165.33989,170.58843 L 167.80864,172.27593 L 165.33989,173.93218 L 167.80864,175.61968 L 165.33989,177.27593 L 167.80864,178.93218 L 167.80864,190.33843 C 159.05864,192.83843 152.80864,195.33843 147.80864,200.33843 L 47.808640,200.33843 C 67.808640,210.32561 67.808640,240.33843 47.808640,250.33843 C 47.808640,250.33843 147.80864,250.33843 147.80864,250.33843 C 167.80864,270.33843 227.80864,270.33843 247.80864,250.33843 L 347.80864,250.33843 C 367.80864,240.32561 367.80864,210.32561 347.80864,200.33843 L 247.80864,200.33843 C 242.80864,195.32561 237.80864,190.33843 227.80864,190.33843 L 227.80864,180.33843 L 230.27739,178.65093 L 227.80864,176.99468 L 230.27739,175.30718 L 227.80864,173.65093 L 230.27739,171.99468 L 227.80864,170.30718 L 230.27739,168.65093 L 227.80864,166.96343 L 230.27739,165.30718 L 227.80864,163.61968 L 230.27739,161.96343 L 227.80864,160.30718 L 230.27739,158.61968 L 227.80864,156.96343 L 230.27739,155.27593 L 227.80864,153.61968 L 230.27739,151.96343 L 227.90239,150.33843"/>
    <path transform="translate(-52.19136,-352.0550)" d="M 220.00000,532.36218 L 219.90625,542.36218 C 211.15625,544.86218 204.90625,547.36218 199.90625,552.36218 L 89.906250,552.36218 C 115.00000,562.36218 115.00000,592.36218 89.906250,602.36218 C 89.906250,602.36218 199.90625,602.36218 199.90625,602.36218 C 219.90625,622.36218 279.90625,622.36218 299.90625,602.36218 L 413.92857,602.36218 C 425.00000,592.36218 425.00000,562.36218 414.10714,552.36218 L 299.90625,552.36218 C 294.90625,547.34936 289.90625,542.36218 279.90625,542.36218 L 280.00000,532.36218" id="path8943" style="opacity:1.0000000;fill:#96b7e6;fill-opacity:0.66793895;fill-rule:evenodd;stroke:none;stroke-linejoin:round;marker:none;marker-start:none;marker-mid:none;marker-end:none;stroke-opacity:0.011450351;visibility:visible;display:inline;overflow:visible" sodipodi:nodetypes="cccccccccccc"/>
  </g>
  <g inkscape:groupmode="layer" id="layer3" inkscape:label="cut" style="display:inline">
    <path transform="translate(-52.19136,-352.0550)" d="M 209.90625,502.36218 L 209.90625,532.36218 C 199.59375,534.86218 197.40625,537.36218 189.90625,542.36218 L 89.906250,542.36218 L 89.906250,552.36218 C 114.90625,562.36218 114.90625,592.36218 89.906250,602.36218 L 89.906250,612.36218 L 189.90625,612.36218 C 219.90625,632.36218 279.90625,632.36218 309.90625,612.36218 L 399.90625,612.36218 C 429.90625,602.34937 429.90625,552.34937 399.90625,542.36218 L 309.90625,542.36218 C 302.40625,537.36218 300.21875,534.86218 289.90625,532.36218 L 289.90625,502.36218 L 280.00000,502.36218 L 282.37500,503.98718 L 279.90625,505.64343 L 282.37500,507.29968 L 279.90625,508.98718 L 282.37500,510.64343 L 279.90625,512.33093 L 282.37500,513.98718 L 279.90625,515.64343 L 282.37500,517.33093 L 279.90625,518.98718 L 282.37500,520.67468 L 279.90625,522.33093 L 282.37500,524.01843 L 279.90625,525.67468 L 282.37500,527.33093 L 279.90625,529.01843 L 282.37500,530.67468 L 279.90625,532.36218 L 279.90625,542.36218 C 289.90625,542.36218 294.90625,547.34936 299.90625,552.36218 L 399.90625,552.36218 C 419.90625,562.34936 419.90625,592.34936 399.90625,602.36218 L 309.90625,602.36218 L 309.90625,572.36218 L 272.48301,572.42825 L 265.87500,582.36218 L 299.90625,582.36218 L 299.90625,602.36218 C 279.90625,622.36218 219.90625,622.36218 199.90625,602.36218 C 199.90625,602.36218 99.906250,602.36218 99.906250,602.36218 C 119.90625,592.36218 119.90625,562.34936 99.906250,552.36218 L 189.90625,552.36218 L 189.90625,582.36218 L 234.96875,582.36218 L 228.15538,572.32914 L 199.90625,572.36218 L 199.90625,552.36218 C 204.90625,547.36218 211.15625,544.86218 219.90625,542.36218 L 219.90625,530.95593 L 217.43750,529.29968 L 219.90625,527.64343 L 217.43750,525.95593 L 219.90625,524.29968 L 217.43750,522.61218 L 219.90625,520.95593 L 217.43750,519.26843 L 219.90625,517.61218 L 217.43750,515.95593 L 219.90625,514.26843 L 217.43750,512.61218 L 219.90625,510.92468 L 217.43750,509.26843 L 219.90625,507.61218 L 217.43750,505.92468 L 219.90625,504.26843 L 217.43750,502.58093 L 217.75000,502.36218 L 209.90625,502.36218 z " id="path8920" style="opacity:1.0000000;fill:#fce94f;fill-rule:evenodd;stroke:#000000;stroke-width:1.0000000px;stroke-linecap:butt;stroke-linejoin:round;stroke-opacity:1.0000000" sodipodi:nodetypes="ccccccccccccccccccccccccccccccccccccccccccccccccccccccccccccccccccccccccc"/>
  </g>
  <g inkscape:groupmode="layer" id="layer6" inkscape:label="surface">
    <path d="M 348.82835,200.23609 C 366.65558,211.36442 368.82480,237.15074 348.66713,250.34900 C 351.89848,250.46526 361.24699,250.43969 361.24699,250.43969 C 373.37555,239.91112 372.31842,210.43969 361.42556,200.43969 C 361.42556,200.43969 353.33107,200.30907 348.82835,200.23609 z " id="path3127" style="opacity:1.0000000;fill:#96b7e6;fill-opacity:0.66793895;fill-rule:evenodd;stroke:none;stroke-linejoin:round;marker:none;marker-start:none;marker-mid:none;marker-end:none;stroke-opacity:0.011450351;visibility:visible;display:inline;overflow:visible" sodipodi:nodetypes="ccccc"/>
    <path d="M 47.747837,250.19363 C 66.290891,239.84386 68.744241,211.63990 47.615696,200.72220 C 43.665530,200.90438 38.043144,200.32577 38.043144,200.32577 C 63.136894,210.32577 63.136894,240.32577 38.043144,250.32577 C 38.043144,250.32577 41.097506,249.97209 47.747837,250.19363 z " id="path3132" style="opacity:1.0000000;fill:#96b7e6;fill-opacity:0.66793895;fill-rule:evenodd;stroke:none;stroke-linejoin:round;marker:none;marker-start:none;marker-mid:none;marker-end:none;stroke-opacity:0.011450351;visibility:visible;display:inline;overflow:visible" sodipodi:nodetypes="ccccc"/>
  </g>
  <g inkscape:groupmode="layer" id="layer5" inkscape:label="bonnet" style="display:inline">
    <path style="fill:#73d216;fill-rule:evenodd;stroke:#000000;stroke-width:1.0000000px;stroke-linecap:butt;stroke-linejoin:round;stroke-opacity:1.0000000" id="path8742" d="M 177.80864,80.320000 L 177.80864,140.32000 L 152.80864,140.32000 L 152.80864,150.32000 L 162.80864,150.32000 L 162.80864,180.32000 L 191.49614,180.32000 L 192.80864,179.57000 L 189.49614,177.69500 L 192.80864,175.82000 L 189.49614,173.94500 L 192.80864,172.07000 L 189.49614,170.19500 L 192.80864,168.32000 L 189.49614,166.44500 L 192.80864,164.57000 L 189.49614,162.69500 L 192.80864,160.82000 L 189.49614,158.94500 L 192.80864,157.07000 L 189.49614,155.19500 L 192.80864,153.32000 L 189.49614,151.44500 L 192.80864,149.57000 L 189.49614,147.69500 L 192.80864,145.82000 L 189.49614,143.94500 L 192.80864,142.07000 L 189.71489,140.32000 L 187.80864,140.32000 L 187.80864,100.32000 L 192.80864,100.32000 L 192.80864,80.320000 L 177.80864,80.320000 z M 202.80864,80.320000 L 202.80864,100.32000 L 207.80864,100.32000 L 207.80864,140.32000 L 205.05864,140.32000 L 206.12114,140.91375 L 202.80864,142.82000 L 206.12114,144.69500 L 202.80864,146.57000 L 206.12114,148.44500 L 202.80864,150.32000 L 206.12114,152.19500 L 202.80864,154.07000 L 206.12114,155.94500 L 202.80864,157.82000 L 206.12114,159.69500 L 202.80864,161.57000 L 206.12114,163.44500 L 202.80864,165.32000 L 206.12114,167.19500 L 202.80864,169.07000 L 206.12114,170.94500 L 202.80864,172.82000 L 206.12114,174.69500 L 202.80864,176.57000 L 206.12114,178.44500 L 202.80864,180.32000 L 232.80864,180.32000 L 232.80864,150.32000 L 242.80864,150.32000 L 242.80864,140.32000 L 217.80864,140.32000 L 217.80864,80.320000 L 202.80864,80.320000 z "/>
    <rect style="opacity:1.0000000;fill:#2e3436;fill-opacity:1.0000000;fill-rule:evenodd;stroke:#000000;stroke-linejoin:round;marker:none;marker-start:none;marker-mid:none;marker-end:none;stroke-opacity:1.0000000;visibility:visible;display:inline;overflow:visible" id="rect8804" y="85.307182" x="182.80864" height="15.000000" width="30.000000"/>
    <path style="fill:#d3d7cf;fill-rule:evenodd;stroke:#000000;stroke-width:1.0000000px;stroke-linecap:butt;stroke-linejoin:round;stroke-opacity:1.0000000" id="path8790" d="M 194.80864,30.320000 L 194.80864,105.32000 L 192.33989,107.78875 L 191.08989,109.03875 L 189.93364,110.19500 L 192.80864,111.82000 L 189.80864,113.50750 L 189.80864,113.88250 L 192.80864,115.57000 L 189.80864,117.25750 L 189.80864,117.63250 L 192.80864,119.32000 L 189.80864,121.00750 L 189.80864,121.38250 L 192.80864,123.07000 L 189.80864,124.75750 L 189.80864,125.13250 L 192.80864,126.82000 L 189.80864,128.50750 L 189.80864,128.88250 L 192.80864,130.57000 L 189.80864,132.25750 L 189.80864,132.63250 L 192.80864,134.32000 L 189.80864,136.00750 L 189.80864,136.38250 L 192.80864,138.07000 L 191.96489,138.57000 L 192.80864,139.03875 L 190.33989,140.44500 L 192.80864,141.82000 L 191.93364,142.32000 L 192.80864,142.82000 L 190.37114,144.19500 L 192.80864,145.57000 L 191.93364,146.07000 L 192.80864,146.57000 L 190.37114,147.94500 L 192.80864,149.32000 L 191.93364,149.82000 L 192.80864,150.32000 L 190.37114,151.69500 L 192.80864,153.07000 L 191.93364,153.57000 L 192.80864,154.07000 L 190.37114,155.44500 L 192.80864,156.82000 L 191.93364,157.32000 L 192.80864,157.82000 L 190.37114,159.19500 L 192.80864,160.57000 L 191.93364,161.07000 L 192.80864,161.57000 L 189.80864,163.25750 L 189.80864,163.63250 L 192.80864,165.32000 L 189.80864,167.00750 L 189.80864,167.38250 L 192.80864,169.07000 L 189.80864,170.75750 L 189.80864,171.13250 L 192.80864,172.82000 L 189.80864,174.50750 L 189.80864,174.88250 L 192.80864,176.57000 L 189.80864,178.25750 L 189.80864,178.63250 L 192.80864,180.32000 L 189.80864,182.00750 L 189.80864,182.38250 L 192.80864,184.07000 L 189.80864,185.75750 L 189.80864,186.13250 L 192.80864,187.82000 L 189.80864,189.50750 L 189.80864,189.88250 L 192.80864,191.57000 L 189.80864,193.25750 L 189.80864,193.63250 L 192.80864,195.32000 L 172.80864,195.32000 L 172.80864,200.32000 L 222.80864,200.32000 L 222.80864,195.32000 L 204.12114,195.32000 L 205.80864,194.38250 L 205.80864,194.00750 L 202.80864,192.32000 L 205.80864,190.63250 L 205.80864,190.25750 L 202.80864,188.57000 L 205.80864,186.88250 L 205.80864,186.50750 L 202.80864,184.82000 L 205.80864,183.13250 L 205.80864,182.75750 L 202.80864,181.07000 L 205.80864,179.38250 L 205.80864,179.00750 L 202.80864,177.32000 L 205.80864,175.63250 L 205.80864,175.25750 L 202.80864,173.57000 L 205.80864,171.88250 L 205.80864,171.50750 L 202.80864,169.82000 L 205.80864,168.13250 L 205.80864,167.75750 L 202.80864,166.07000 L 205.80864,164.38250 L 205.80864,164.00750 L 202.80864,162.32000 L 205.80864,160.63250 L 205.80864,160.25750 L 202.80864,158.57000 L 205.80864,156.88250 L 205.80864,156.50750 L 202.80864,154.82000 L 205.80864,153.13250 L 205.80864,152.75750 L 202.80864,151.07000 L 205.80864,149.38250 L 205.80864,149.00750 L 202.80864,147.32000 L 205.80864,145.63250 L 205.80864,145.25750 L 202.80864,143.57000 L 205.80864,141.88250 L 205.80864,141.50750 L 202.80864,139.82000 L 205.80864,138.10125 L 205.80864,137.72625 L 202.80864,136.03875 L 205.80864,134.35125 L 205.80864,133.97625 L 202.80864,132.28875 L 205.80864,130.60125 L 205.80864,130.22625 L 202.80864,128.53875 L 205.80864,126.85125 L 205.80864,126.47625 L 202.80864,124.78875 L 205.80864,123.10125 L 205.80864,122.72625 L 202.80864,121.03875 L 205.80864,119.35125 L 205.80864,118.97625 L 202.80864,117.28875 L 205.80864,115.60125 L 205.80864,115.22625 L 202.80864,113.53875 L 205.80864,111.85125 L 205.80864,111.47625 L 202.80864,109.78875 L 200.80864,105.32000 L 200.80864,30.320000 L 194.80864,30.320000 z "/>
    <path style="fill:#2e3436;fill-rule:evenodd;stroke:#000000;stroke-width:1.0000000px;stroke-linecap:butt;stroke-linejoin:round;stroke-opacity:1.0000000" id="path8770" d="M 182.80864,215.30718 L 172.80864,200.30718 L 222.80864,200.30718 L 212.80864,215.30718 L 182.80864,215.30718 z "/>
    <path style="opacity:1.0000000;fill:url(#linearGradient3077);fill-opacity:1.0000000;fill-rule:evenodd;stroke:#000000;stroke-width:0.91616064;stroke-linejoin:round;marker:none;marker-start:none;marker-mid:none;marker-end:none;stroke-opacity:1.0000000;visibility:visible;display:inline;overflow:visible" id="path9016" d="M 267.85056,23.060820 C 267.85056,24.175510 267.69777,28.167220 267.69777,27.052520 C 267.69777,25.937820 236.30697,25.033140 197.62903,25.033140 C 158.95109,25.033140 127.56030,25.937820 127.56030,27.052520 C 127.56030,28.167220 127.71309,24.175510 127.71309,23.060820 C 127.71309,21.946120 159.10389,21.041440 197.78184,21.041440 C 236.45977,21.041440 267.85056,21.946120 267.85056,23.060820 z "/>
    <path style="fill:url(#linearGradient3074);fill-opacity:1.0000000;fill-rule:evenodd;stroke:#000000;stroke-linejoin:round;marker:none;marker-start:none;marker-mid:none;marker-end:none;stroke-opacity:1.0000000;visibility:visible;display:inline;overflow:visible" id="path8982" d="M 267.96162,32.057170 C 267.96162,30.730720 267.80864,21.980730 267.80864,23.307180 C 267.80864,24.633630 236.38010,25.710170 197.65565,25.710170 C 158.93120,25.710170 127.50266,24.633630 127.50266,23.307180 C 127.50266,21.980730 127.65564,30.730720 127.65564,32.057170 C 127.65564,33.383620 159.08418,34.460160 197.80863,34.460160 C 236.53308,34.460160 267.96162,33.383620 267.96162,32.057170 z "/>
  </g>
  <g transform="translate(-52.19136,-352.0550)" id="layer2" style="display:none">
    <flowRoot transform="translate(-94.80664,-139.0337)" id="flowRoot8952" xml:space="preserve" style="font-size:20.000000px;font-style:normal;font-weight:normal;fill:#000000;fill-opacity:1.0000000;stroke:none;stroke-width:1.0000000px;stroke-linecap:butt;stroke-linejoin:miter;stroke-opacity:1.0000000;font-family:Bitstream Vera Sans"><flowRegion id="flowRegion8954"><rect width="102.14285" height="55.714294" x="232.85715" y="636.64789" id="rect8956" style="font-size:20px"/></flowRegion><flowPara id="flowPara8958">Body</flowPara></flowRoot>    <text x="300" y="517.36218" id="text8960" xml:space="preserve" style="font-size:20.000000px;font-style:normal;font-weight:normal;fill:#000000;fill-opacity:1.0000000;stroke:none;stroke-width:1.0000000px;stroke-linecap:butt;stroke-linejoin:miter;stroke-opacity:1.0000000;font-family:Bitstream Vera Sans"><tspan x="300" y="517.36218" id="tspan8962">Plug</tspan></text>
    <text x="300" y="467.36218" id="text8964" xml:space="preserve" style="font-size:20.000000px;font-style:normal;font-weight:normal;fill:#000000;fill-opacity:1.0000000;stroke:none;stroke-width:1.0000000px;stroke-linecap:butt;stroke-linejoin:miter;stroke-opacity:1.0000000;font-family:Bitstream Vera Sans"><tspan x="300" y="467.36218" id="tspan8966">Bonnet</tspan></text>
    <text x="300" y="422.36218" id="text8968" xml:space="preserve" style="font-size:20.000000px;font-style:normal;font-weight:normal;fill:#000000;fill-opacity:1.0000000;stroke:none;stroke-width:1.0000000px;stroke-linecap:butt;stroke-linejoin:miter;stroke-opacity:1.0000000;font-family:Bitstream Vera Sans"><tspan x="300" y="422.36218" id="tspan8970">Stem</tspan></text>
    <path d="M 295.00000,462.36218 L 265.00000,462.36218" id="path9028" style="fill:none;fill-rule:evenodd;stroke:#000000;stroke-width:2.0000000;stroke-linecap:butt;stroke-linejoin:miter;marker-end:url(#DotS);stroke-miterlimit:4.0000000;stroke-dasharray:none;stroke-opacity:1.0000000"/>
    <path d="M 295.00000,417.36218 L 250.00000,417.36218" id="path10325" style="fill:none;fill-rule:evenodd;stroke:#000000;stroke-width:2.0000000;stroke-linecap:butt;stroke-linejoin:miter;marker-end:url(#DotS);stroke-miterlimit:4.0000000;stroke-dasharray:none;stroke-opacity:1.0000000"/>
    <path d="M 295.00000,512.36218 L 250.00000,557.36218" id="path10327" style="fill:none;fill-rule:evenodd;stroke:#000000;stroke-width:2.0000000;stroke-linecap:butt;stroke-linejoin:miter;marker-end:url(#DotS);stroke-miterlimit:4.0000000;stroke-dasharray:none;stroke-opacity:1.0000000"/>
    <path d="M 190.00000,512.36218 L 215.00000,512.36218" id="path10329" style="fill:none;fill-rule:evenodd;stroke:#000000;stroke-width:2.0000000;stroke-linecap:butt;stroke-linejoin:miter;marker-end:url(#DotS);stroke-miterlimit:4.0000000;stroke-dasharray:none;stroke-opacity:1.0000000"/>
  </g>
  <text style="font-size:20.000000px;font-style:normal;font-weight:normal;fill:#000000;fill-opacity:1.0000000;stroke:none;stroke-width:1.0000000px;stroke-linecap:butt;stroke-linejoin:miter;stroke-opacity:1.0000000;font-family:Bitstream Vera Sans" xml:space="preserve" id="text10855" y="177.07945" x="119.56306"><tspan id="tspan10857" y="177.07945" x="119.56306">3</tspan></text>
  <text style="font-size:20.000000px;font-style:normal;font-weight:normal;fill:#000000;fill-opacity:1.0000000;stroke:none;stroke-width:1.0000000px;stroke-linecap:butt;stroke-linejoin:miter;stroke-opacity:1.0000000;font-family:Bitstream Vera Sans" xml:space="preserve" id="text10859" y="129.35948" x="119.56306"><tspan id="tspan10861" y="129.35948" x="119.56306">2</tspan></text>
  <text style="font-size:20.000000px;font-style:normal;font-weight:normal;fill:#000000;fill-opacity:1.0000000;stroke:none;stroke-width:1.0000000px;stroke-linecap:butt;stroke-linejoin:miter;stroke-opacity:1.0000000;font-family:Bitstream Vera Sans" xml:space="preserve" id="text10863" y="89.116577" x="119.56306"><tspan id="tspan10865" y="89.116577" x="119.56306">1</tspan></text>
  <text xml:space="preserve" style="font-size:20.000000px;font-style:normal;font-weight:normal;fill:#000000;fill-opacity:1.0000000;stroke:none;stroke-width:1.0000000px;stroke-linecap:butt;stroke-linejoin:miter;stroke-opacity:1.0000000;font-family:Bitstream Vera Sans" x="279.52048" y="170.22572" id="text11551"><tspan sodipodi:role="line" id="tspan11553" x="279.52048" y="170.22572">4</tspan></text>
  <path style="fill:none;fill-rule:evenodd;stroke:#000000;stroke-width:1.9999998;stroke-linecap:butt;stroke-linejoin:miter;marker-end:url(#DotS);stroke-miterlimit:4.0000000;stroke-dasharray:none;stroke-opacity:1.0000000" id="path2918" d="M 136.08117,79.535730 L 196.93211,44.927678" sodipodi:nodetypes="cc"/>
  <path sodipodi:type="arc" style="fill:#eaeaea;fill-opacity:1.0000000;stroke:#ffffff;stroke-width:0.00000000;stroke-miterlimit:5.0000000;stroke-dasharray:none;stroke-opacity:1.0000000" id="path6947" sodipodi:cx="78.491982" sodipodi:cy="138.03477" sodipodi:rx="17.706945" sodipodi:ry="18.499794" d="M 96.198927 138.03477 A 17.706945 18.499794 0 1 1  60.785036,138.03477 A 17.706945 18.499794 0 1 1  96.198927 138.03477 z" transform="matrix(0.198037,0.000000,0.000000,0.193811,176.8923,179.8894)"/>
  <path style="fill:none;fill-rule:evenodd;stroke:#eaeaea;stroke-width:5.0000000;stroke-linecap:butt;stroke-linejoin:miter;marker-end:none;stroke-miterlimit:4.0000000;stroke-dasharray:none;stroke-opacity:1.0000000" id="path7687" d="M 167.20734,192.34089 L 193.06529,207.04722" sodipodi:nodetypes="cc"/>
  <path style="fill:none;fill-rule:evenodd;stroke:#000000;stroke-width:1.9999992;stroke-linecap:butt;stroke-linejoin:miter;marker-end:url(#DotS);stroke-miterlimit:4.0000000;stroke-dasharray:none;stroke-opacity:1.0000000" id="path2924" d="M 135.82326,174.41188 L 192.62039,206.71438" sodipodi:nodetypes="cc"/>
  <path style="fill:none;fill-rule:evenodd;stroke:#000000;stroke-width:1.9999983;stroke-linecap:butt;stroke-linejoin:miter;marker-end:url(#DotS);stroke-miterlimit:4.0000000;stroke-dasharray:none;stroke-opacity:1.0000000" id="path2926" d="M 135.78053,123.04942 L 178.96040,147.60732" sodipodi:nodetypes="cc"/>
  <path style="fill:none;fill-rule:evenodd;stroke:#000000;stroke-width:1.9999990;stroke-linecap:butt;stroke-linejoin:miter;marker-end:url(#DotS);stroke-miterlimit:4.0000000;stroke-dasharray:none;stroke-opacity:1.0000000" id="path2928" d="M 274.91096,170.87109 L 243.30850,188.84451" sodipodi:nodetypes="cc"/>
</svg>